<?xml version="1.0" encoding="utf-8"?><svg version="1.1" id="Layer_1" xmlns="http://www.w3.org/2000/svg" xmlns:xlink="http://www.w3.org/1999/xlink" x="0px" y="0px" viewBox="0.07 0.02 29.32 23.87" style="enable-background:new 0.07 0.02 29.32 23.87" xml:space="preserve"><style type="text/css"><![CDATA[
	.st0{fill:#282828;}
	.st1{fill:#FF0000;}
	.st2{fill:#FFFFFF;}
]]></style><title>Kids_Logo_Black_forWhiteBG_RGB (1)</title><desc>Created with Sketch.</desc><g id="Page-1"><g id="Kids_x5F_Logo_x5F_Black_x5F_forWhiteBG_x5F_RGB-_x28_1_x29_"><path id="Path_8_" class="st1" d="M28.91,13.58c-0.02-1.41-0.82-8.11-1.21-9.15c-0.25-0.67-0.78-1.9-1.75-2.64 c-1.25-0.95-2.27-1.13-3.57-1.15C21.47,0.61,6.89,2.5,5.12,3.16C3.8,3.65,2.77,4.29,1.96,5.1C0.63,6.43,0.38,7.72,0.59,9.99 c0.19,2.06,1.14,8.88,1.61,10.29c0.52,1.56,1.48,2.76,3.06,2.93c4.83,0.53,5.97-2.17,17.2-2.15c3.4,0.01,5.09-1.5,5.8-2.82 C29.08,16.69,28.92,14.65,28.91,13.58L28.91,13.58z"/><path id="Shape_4_" class="st0" d="M22.02,1.15h0.01c1.24,0.02,2.21,0.19,3.41,1.1c0.93,0.71,1.44,1.88,1.67,2.52 c0.37,0.99,1.13,7.38,1.15,8.73c0.01,1.03,0.17,2.97-0.62,4.45c-0.67,1.25-2.28,2.69-5.51,2.69c-0.01,0-0.02,0-0.02,0 c-0.05,0-0.1,0-0.15,0c-9.63,0-11.4,2.11-15.1,2.11c-0.36,0-0.75-0.02-1.16-0.06c-1.51-0.17-2.42-1.31-2.92-2.79 c-0.45-1.35-1.35-7.86-1.54-9.82c-0.2-2.17,0.04-3.4,1.3-4.66c0.77-0.78,1.76-1.38,3.02-1.85C7.24,2.93,21.03,1.15,22.02,1.15 L22.02,1.15z M22.02,0.02c-0.62,0-4.7,0.51-8.12,0.98c-3.42,0.47-7.7,1.12-8.72,1.5C3.77,3.02,2.65,3.71,1.76,4.61 c-1.63,1.64-1.83,3.35-1.63,5.58c0.16,1.73,1.07,8.52,1.59,10.08c0.7,2.1,2.07,3.36,3.85,3.55c0.44,0.05,0.86,0.07,1.28,0.07 c1.56,0,2.8-0.34,4.24-0.73c2.26-0.62,5.07-1.38,10.87-1.38h0.14h0.03c1.42,0,4.9-0.32,6.48-3.28c0.85-1.58,0.8-3.51,0.77-4.66 c0-0.13,0-0.25-0.01-0.35c-0.02-1.37-0.79-7.94-1.22-9.11C27.65,3.02,26.96,2,26.1,1.34c-1.4-1.07-2.58-1.3-4.05-1.33h-0.01H22.02 z"/><path id="Path_9_" class="st2" d="M19.1,11.74c-0.04,0.02-0.07,0.05-0.11,0.07c-0.28,0.19-0.56,0.39-0.84,0.58 c-0.65,0.45-4.43,3.07-4.43,3.07c-0.32,0.25-0.93,0.64-1.16,0.51c-0.23-0.13-0.31-0.97-0.37-1.38l-0.01-0.09 c-0.07-0.49-0.61-5.19-0.68-5.71c-0.02-0.15-0.11-0.68,0.06-0.81c0.18-0.13,0.62,0.02,0.77,0.07c0.87,0.28,5.24,1.83,6.6,2.53 c0.04,0.02,0.08,0.04,0.13,0.06c0.19,0.08,0.46,0.2,0.47,0.53C19.52,11.48,19.29,11.62,19.1,11.74L19.1,11.74z"/><path id="Shape_5_" class="st0" d="M12.11,8.68c1.52,0.52,5.03,1.79,6.68,2.53c-0.2,0.14-0.4,0.27-0.6,0.41 c-0.77,0.53-5.25,3.64-5.25,3.64l-0.02,0.02l-0.02,0.02c0,0,0,0,0,0c-0.01-0.04-0.01-0.07-0.01-0.1l-0.02-0.18l-0.02-0.11 c-0.06-0.42-0.42-3.5-0.63-5.35C12.17,9.22,12.14,8.92,12.11,8.68L12.11,8.68z M11.26,7.29c-0.1,0-0.18,0.02-0.24,0.06 c-0.2,0.14-0.09,0.78-0.07,0.95c0.07,0.61,0.72,6.18,0.8,6.76l0.01,0.11c0.07,0.49,0.16,1.49,0.44,1.64 c0.04,0.02,0.08,0.03,0.13,0.03c0.33,0,0.91-0.38,1.24-0.64c0,0,4.48-3.1,5.25-3.63c0.33-0.23,0.67-0.46,1-0.69 c0.04-0.03,0.08-0.05,0.13-0.08c0.23-0.14,0.51-0.31,0.5-0.68c-0.01-0.39-0.32-0.53-0.55-0.62c-0.05-0.02-0.1-0.05-0.15-0.07 c-1.61-0.82-6.79-2.66-7.82-2.99C11.8,7.39,11.5,7.29,11.26,7.29L11.26,7.29z"/></g></g></svg>